<mxfile host="app.diagrams.net" modified="2023-01-24T20:58:03.639Z" agent="5.0 (Macintosh; Intel Mac OS X 10_15_7) AppleWebKit/537.36 (KHTML, like Gecko) Chrome/109.0.0.0 Safari/537.36" etag="-4-_3AYES4-sGMVaDbWI" version="20.8.11" type="github">
  <diagram name="Page-1" id="byyhZGZG3JCeQmkgEBOb">
    <mxGraphModel dx="934" dy="1671" grid="1" gridSize="10" guides="1" tooltips="1" connect="1" arrows="1" fold="1" page="1" pageScale="1" pageWidth="850" pageHeight="1100" math="0" shadow="0">
      <root>
        <mxCell id="0" />
        <mxCell id="1" parent="0" />
        <mxCell id="nuvW03jMFRnIzfuUqOyy-1" value="Company" style="whiteSpace=wrap;html=1;align=center;" vertex="1" parent="1">
          <mxGeometry x="380" y="-200" width="100" height="40" as="geometry" />
        </mxCell>
        <mxCell id="nuvW03jMFRnIzfuUqOyy-2" value="Bus" style="whiteSpace=wrap;html=1;align=center;" vertex="1" parent="1">
          <mxGeometry x="380" width="100" height="40" as="geometry" />
        </mxCell>
        <mxCell id="nuvW03jMFRnIzfuUqOyy-3" value="Driver" style="whiteSpace=wrap;html=1;align=center;" vertex="1" parent="1">
          <mxGeometry x="590" y="120" width="100" height="40" as="geometry" />
        </mxCell>
        <mxCell id="nuvW03jMFRnIzfuUqOyy-4" value="Route" style="whiteSpace=wrap;html=1;align=center;" vertex="1" parent="1">
          <mxGeometry x="375" y="190" width="100" height="40" as="geometry" />
        </mxCell>
        <mxCell id="nuvW03jMFRnIzfuUqOyy-7" value="Registrion Number" style="ellipse;whiteSpace=wrap;html=1;align=center;fontStyle=4;" vertex="1" parent="1">
          <mxGeometry x="245" y="-20" width="80" height="30" as="geometry" />
        </mxCell>
        <mxCell id="nuvW03jMFRnIzfuUqOyy-9" value="Route Number" style="ellipse;whiteSpace=wrap;html=1;align=center;fontStyle=4;" vertex="1" parent="1">
          <mxGeometry x="230" y="230" width="90" height="20" as="geometry" />
        </mxCell>
        <mxCell id="nuvW03jMFRnIzfuUqOyy-10" value="Average Carried Customer" style="ellipse;whiteSpace=wrap;html=1;align=center;" vertex="1" parent="1">
          <mxGeometry x="225" y="170" width="100" height="30" as="geometry" />
        </mxCell>
        <mxCell id="nuvW03jMFRnIzfuUqOyy-11" value="Employee Number" style="ellipse;whiteSpace=wrap;html=1;align=center;fontStyle=4;" vertex="1" parent="1">
          <mxGeometry x="710" y="200" width="100" height="40" as="geometry" />
        </mxCell>
        <mxCell id="nuvW03jMFRnIzfuUqOyy-12" value="Name" style="ellipse;whiteSpace=wrap;html=1;align=center;" vertex="1" parent="1">
          <mxGeometry x="720" y="75" width="60" height="10" as="geometry" />
        </mxCell>
        <mxCell id="nuvW03jMFRnIzfuUqOyy-13" value="Address" style="ellipse;whiteSpace=wrap;html=1;align=center;" vertex="1" parent="1">
          <mxGeometry x="750" y="160" width="80" height="20" as="geometry" />
        </mxCell>
        <mxCell id="nuvW03jMFRnIzfuUqOyy-14" value="Telephone Number" style="ellipse;whiteSpace=wrap;html=1;align=center;" vertex="1" parent="1">
          <mxGeometry x="730" y="100" width="140" height="35" as="geometry" />
        </mxCell>
        <mxCell id="nuvW03jMFRnIzfuUqOyy-17" value="Garage" style="shape=ext;margin=3;double=1;whiteSpace=wrap;html=1;align=center;" vertex="1" parent="1">
          <mxGeometry x="670" y="-100" width="100" height="40" as="geometry" />
        </mxCell>
        <mxCell id="nuvW03jMFRnIzfuUqOyy-19" value="Name" style="ellipse;whiteSpace=wrap;html=1;align=center;fontStyle=4;" vertex="1" parent="1">
          <mxGeometry x="240" y="-190" width="80" height="30" as="geometry" />
        </mxCell>
        <mxCell id="nuvW03jMFRnIzfuUqOyy-20" value="OWN" style="shape=rhombus;perimeter=rhombusPerimeter;whiteSpace=wrap;html=1;align=center;" vertex="1" parent="1">
          <mxGeometry x="390" y="-90" width="80" height="30" as="geometry" />
        </mxCell>
        <mxCell id="nuvW03jMFRnIzfuUqOyy-21" value="Size" style="ellipse;shape=doubleEllipse;margin=3;whiteSpace=wrap;html=1;align=center;" vertex="1" parent="1">
          <mxGeometry x="250" y="20" width="70" height="30" as="geometry" />
        </mxCell>
        <mxCell id="nuvW03jMFRnIzfuUqOyy-22" value="HAS" style="shape=rhombus;perimeter=rhombusPerimeter;whiteSpace=wrap;html=1;align=center;" vertex="1" parent="1">
          <mxGeometry x="390" y="90" width="70" height="40" as="geometry" />
        </mxCell>
        <mxCell id="nuvW03jMFRnIzfuUqOyy-25" value="PARK" style="shape=rhombus;double=1;perimeter=rhombusPerimeter;whiteSpace=wrap;html=1;align=center;" vertex="1" parent="1">
          <mxGeometry x="560" width="80" height="40" as="geometry" />
        </mxCell>
        <mxCell id="nuvW03jMFRnIzfuUqOyy-31" value="ASSIGN_TO" style="shape=rhombus;perimeter=rhombusPerimeter;whiteSpace=wrap;html=1;align=center;" vertex="1" parent="1">
          <mxGeometry x="600" y="200" width="80" height="30" as="geometry" />
        </mxCell>
        <mxCell id="nuvW03jMFRnIzfuUqOyy-33" value="1" style="endArrow=none;html=1;rounded=0;exitX=0.5;exitY=1;exitDx=0;exitDy=0;entryX=0.5;entryY=0;entryDx=0;entryDy=0;strokeWidth=1;fontSize=20;" edge="1" parent="1" source="nuvW03jMFRnIzfuUqOyy-1" target="nuvW03jMFRnIzfuUqOyy-20">
          <mxGeometry relative="1" as="geometry">
            <mxPoint x="530" y="100" as="sourcePoint" />
            <mxPoint x="690" y="100" as="targetPoint" />
          </mxGeometry>
        </mxCell>
        <mxCell id="nuvW03jMFRnIzfuUqOyy-34" value="1" style="endArrow=none;html=1;rounded=0;entryX=0.5;entryY=0;entryDx=0;entryDy=0;exitX=0.5;exitY=1;exitDx=0;exitDy=0;" edge="1" parent="1" source="nuvW03jMFRnIzfuUqOyy-2" target="nuvW03jMFRnIzfuUqOyy-22">
          <mxGeometry relative="1" as="geometry">
            <mxPoint x="420" y="40" as="sourcePoint" />
            <mxPoint x="690" y="100" as="targetPoint" />
          </mxGeometry>
        </mxCell>
        <mxCell id="nuvW03jMFRnIzfuUqOyy-35" value="N" style="endArrow=none;html=1;rounded=0;exitX=0.5;exitY=1;exitDx=0;exitDy=0;entryX=0.5;entryY=0;entryDx=0;entryDy=0;" edge="1" parent="1" source="nuvW03jMFRnIzfuUqOyy-22" target="nuvW03jMFRnIzfuUqOyy-4">
          <mxGeometry relative="1" as="geometry">
            <mxPoint x="530" y="100" as="sourcePoint" />
            <mxPoint x="690" y="100" as="targetPoint" />
          </mxGeometry>
        </mxCell>
        <mxCell id="nuvW03jMFRnIzfuUqOyy-38" value="M" style="endArrow=none;html=1;rounded=0;exitX=0.5;exitY=1;exitDx=0;exitDy=0;entryX=0.047;entryY=0.517;entryDx=0;entryDy=0;entryPerimeter=0;" edge="1" parent="1" source="nuvW03jMFRnIzfuUqOyy-4">
          <mxGeometry relative="1" as="geometry">
            <mxPoint x="530" y="100" as="sourcePoint" />
            <mxPoint x="787.05" y="331.02" as="targetPoint" />
          </mxGeometry>
        </mxCell>
        <mxCell id="nuvW03jMFRnIzfuUqOyy-39" value="N" style="endArrow=none;html=1;rounded=0;exitX=0.5;exitY=1;exitDx=0;exitDy=0;entryX=0.5;entryY=0;entryDx=0;entryDy=0;" edge="1" parent="1" source="nuvW03jMFRnIzfuUqOyy-61">
          <mxGeometry relative="1" as="geometry">
            <mxPoint x="900" y="40" as="sourcePoint" />
            <mxPoint x="855" y="300" as="targetPoint" />
          </mxGeometry>
        </mxCell>
        <mxCell id="nuvW03jMFRnIzfuUqOyy-40" value="M" style="endArrow=none;html=1;rounded=0;exitX=1;exitY=0.5;exitDx=0;exitDy=0;entryX=0;entryY=0.5;entryDx=0;entryDy=0;" edge="1" parent="1" source="nuvW03jMFRnIzfuUqOyy-2" target="nuvW03jMFRnIzfuUqOyy-25">
          <mxGeometry relative="1" as="geometry">
            <mxPoint x="530" y="100" as="sourcePoint" />
            <mxPoint x="690" y="100" as="targetPoint" />
          </mxGeometry>
        </mxCell>
        <mxCell id="nuvW03jMFRnIzfuUqOyy-41" value="N" style="endArrow=none;html=1;rounded=0;exitX=0.5;exitY=1;exitDx=0;exitDy=0;" edge="1" parent="1" source="nuvW03jMFRnIzfuUqOyy-20" target="nuvW03jMFRnIzfuUqOyy-2">
          <mxGeometry relative="1" as="geometry">
            <mxPoint x="530" y="100" as="sourcePoint" />
            <mxPoint x="690" y="100" as="targetPoint" />
          </mxGeometry>
        </mxCell>
        <mxCell id="nuvW03jMFRnIzfuUqOyy-42" value="1" style="endArrow=none;html=1;rounded=0;exitX=1;exitY=0.5;exitDx=0;exitDy=0;entryX=0;entryY=0.5;entryDx=0;entryDy=0;" edge="1" parent="1" source="nuvW03jMFRnIzfuUqOyy-25" target="nuvW03jMFRnIzfuUqOyy-17">
          <mxGeometry relative="1" as="geometry">
            <mxPoint x="530" y="100" as="sourcePoint" />
            <mxPoint x="850" y="20" as="targetPoint" />
          </mxGeometry>
        </mxCell>
        <mxCell id="nuvW03jMFRnIzfuUqOyy-46" value="" style="endArrow=none;html=1;rounded=0;exitX=1;exitY=0.5;exitDx=0;exitDy=0;entryX=0;entryY=0.5;entryDx=0;entryDy=0;" edge="1" parent="1" source="nuvW03jMFRnIzfuUqOyy-7" target="nuvW03jMFRnIzfuUqOyy-2">
          <mxGeometry relative="1" as="geometry">
            <mxPoint x="530" y="40" as="sourcePoint" />
            <mxPoint x="690" y="40" as="targetPoint" />
          </mxGeometry>
        </mxCell>
        <mxCell id="nuvW03jMFRnIzfuUqOyy-47" value="" style="line;strokeWidth=1;rotatable=0;dashed=0;labelPosition=right;align=left;verticalAlign=middle;spacingTop=0;spacingLeft=6;points=[];portConstraint=eastwest;" vertex="1" parent="1">
          <mxGeometry x="320" y="30" width="60" height="10" as="geometry" />
        </mxCell>
        <mxCell id="nuvW03jMFRnIzfuUqOyy-49" value="" style="endArrow=none;html=1;rounded=0;exitX=1;exitY=0.5;exitDx=0;exitDy=0;entryX=0;entryY=0.25;entryDx=0;entryDy=0;" edge="1" parent="1" source="nuvW03jMFRnIzfuUqOyy-10" target="nuvW03jMFRnIzfuUqOyy-4">
          <mxGeometry relative="1" as="geometry">
            <mxPoint x="530" y="40" as="sourcePoint" />
            <mxPoint x="690" y="40" as="targetPoint" />
          </mxGeometry>
        </mxCell>
        <mxCell id="nuvW03jMFRnIzfuUqOyy-50" value="" style="endArrow=none;html=1;rounded=0;exitX=1;exitY=0.5;exitDx=0;exitDy=0;entryX=0;entryY=0.25;entryDx=0;entryDy=0;" edge="1" parent="1" source="nuvW03jMFRnIzfuUqOyy-9" target="nuvW03jMFRnIzfuUqOyy-4">
          <mxGeometry relative="1" as="geometry">
            <mxPoint x="530" y="40" as="sourcePoint" />
            <mxPoint x="370" y="200" as="targetPoint" />
          </mxGeometry>
        </mxCell>
        <mxCell id="nuvW03jMFRnIzfuUqOyy-51" value="N" style="endArrow=none;html=1;rounded=0;exitX=0.5;exitY=1;exitDx=0;exitDy=0;entryX=0.5;entryY=0;entryDx=0;entryDy=0;" edge="1" parent="1" source="nuvW03jMFRnIzfuUqOyy-3" target="nuvW03jMFRnIzfuUqOyy-31">
          <mxGeometry relative="1" as="geometry">
            <mxPoint x="530" y="40" as="sourcePoint" />
            <mxPoint x="690" y="40" as="targetPoint" />
          </mxGeometry>
        </mxCell>
        <mxCell id="nuvW03jMFRnIzfuUqOyy-52" value="M" style="endArrow=none;html=1;rounded=0;exitX=1;exitY=0.5;exitDx=0;exitDy=0;entryX=0;entryY=0.5;entryDx=0;entryDy=0;" edge="1" parent="1" source="nuvW03jMFRnIzfuUqOyy-4" target="nuvW03jMFRnIzfuUqOyy-31">
          <mxGeometry relative="1" as="geometry">
            <mxPoint x="530" y="40" as="sourcePoint" />
            <mxPoint x="690" y="40" as="targetPoint" />
          </mxGeometry>
        </mxCell>
        <mxCell id="nuvW03jMFRnIzfuUqOyy-53" value="" style="endArrow=none;html=1;rounded=0;exitX=1;exitY=0.5;exitDx=0;exitDy=0;entryX=0;entryY=0.5;entryDx=0;entryDy=0;" edge="1" parent="1" source="nuvW03jMFRnIzfuUqOyy-3" target="nuvW03jMFRnIzfuUqOyy-12">
          <mxGeometry relative="1" as="geometry">
            <mxPoint x="530" y="40" as="sourcePoint" />
            <mxPoint x="690" y="40" as="targetPoint" />
          </mxGeometry>
        </mxCell>
        <mxCell id="nuvW03jMFRnIzfuUqOyy-55" value="" style="endArrow=none;html=1;rounded=0;exitX=1;exitY=0.25;exitDx=0;exitDy=0;entryX=0;entryY=0.5;entryDx=0;entryDy=0;" edge="1" parent="1" source="nuvW03jMFRnIzfuUqOyy-3" target="nuvW03jMFRnIzfuUqOyy-14">
          <mxGeometry relative="1" as="geometry">
            <mxPoint x="530" y="40" as="sourcePoint" />
            <mxPoint x="690" y="40" as="targetPoint" />
          </mxGeometry>
        </mxCell>
        <mxCell id="nuvW03jMFRnIzfuUqOyy-56" value="" style="endArrow=none;html=1;rounded=0;entryX=0;entryY=0.5;entryDx=0;entryDy=0;" edge="1" parent="1" target="nuvW03jMFRnIzfuUqOyy-13">
          <mxGeometry relative="1" as="geometry">
            <mxPoint x="690" y="140" as="sourcePoint" />
            <mxPoint x="690" y="40" as="targetPoint" />
          </mxGeometry>
        </mxCell>
        <mxCell id="nuvW03jMFRnIzfuUqOyy-57" value="" style="endArrow=none;html=1;rounded=0;exitX=1;exitY=0.5;exitDx=0;exitDy=0;entryX=0;entryY=0.5;entryDx=0;entryDy=0;" edge="1" parent="1" source="nuvW03jMFRnIzfuUqOyy-3" target="nuvW03jMFRnIzfuUqOyy-11">
          <mxGeometry relative="1" as="geometry">
            <mxPoint x="530" y="40" as="sourcePoint" />
            <mxPoint x="690" y="40" as="targetPoint" />
          </mxGeometry>
        </mxCell>
        <mxCell id="nuvW03jMFRnIzfuUqOyy-58" value="" style="endArrow=none;html=1;rounded=0;strokeWidth=1;fontSize=20;exitX=1;exitY=0.5;exitDx=0;exitDy=0;entryX=0;entryY=0.75;entryDx=0;entryDy=0;" edge="1" parent="1" source="nuvW03jMFRnIzfuUqOyy-19" target="nuvW03jMFRnIzfuUqOyy-1">
          <mxGeometry relative="1" as="geometry">
            <mxPoint x="530" y="40" as="sourcePoint" />
            <mxPoint x="690" y="40" as="targetPoint" />
          </mxGeometry>
        </mxCell>
        <mxCell id="nuvW03jMFRnIzfuUqOyy-59" value="Number of Towns" style="ellipse;whiteSpace=wrap;html=1;align=center;fontSize=11;fontStyle=0;strokeColor=default;" vertex="1" parent="1">
          <mxGeometry x="990" y="310" width="100" height="40" as="geometry" />
        </mxCell>
        <mxCell id="nuvW03jMFRnIzfuUqOyy-60" value="" style="endArrow=none;html=1;rounded=0;strokeWidth=1;fontSize=11;entryX=0;entryY=0.5;entryDx=0;entryDy=0;exitX=1;exitY=0.5;exitDx=0;exitDy=0;" edge="1" parent="1" target="nuvW03jMFRnIzfuUqOyy-59">
          <mxGeometry relative="1" as="geometry">
            <mxPoint x="930" y="330" as="sourcePoint" />
            <mxPoint x="810" y="230" as="targetPoint" />
          </mxGeometry>
        </mxCell>
        <mxCell id="nuvW03jMFRnIzfuUqOyy-61" value="Town" style="whiteSpace=wrap;html=1;align=center;strokeColor=default;fontSize=11;" vertex="1" parent="1">
          <mxGeometry x="920" width="100" height="40" as="geometry" />
        </mxCell>
        <mxCell id="nuvW03jMFRnIzfuUqOyy-62" value="" style="endArrow=none;html=1;rounded=0;strokeWidth=1;fontSize=11;exitX=1;exitY=0.5;exitDx=0;exitDy=0;entryX=0.5;entryY=0;entryDx=0;entryDy=0;startArrow=none;" edge="1" parent="1" source="nuvW03jMFRnIzfuUqOyy-64" target="nuvW03jMFRnIzfuUqOyy-61">
          <mxGeometry relative="1" as="geometry">
            <mxPoint x="550" y="120" as="sourcePoint" />
            <mxPoint x="710" y="120" as="targetPoint" />
          </mxGeometry>
        </mxCell>
        <mxCell id="nuvW03jMFRnIzfuUqOyy-65" value="" style="endArrow=none;html=1;rounded=0;strokeWidth=1;fontSize=11;exitX=1;exitY=0.5;exitDx=0;exitDy=0;entryX=0;entryY=0.5;entryDx=0;entryDy=0;" edge="1" parent="1" source="nuvW03jMFRnIzfuUqOyy-17" target="nuvW03jMFRnIzfuUqOyy-64">
          <mxGeometry relative="1" as="geometry">
            <mxPoint x="770" y="-80" as="sourcePoint" />
            <mxPoint x="900" as="targetPoint" />
          </mxGeometry>
        </mxCell>
        <mxCell id="nuvW03jMFRnIzfuUqOyy-64" value="LOCATED_AT" style="shape=rhombus;double=1;perimeter=rhombusPerimeter;whiteSpace=wrap;html=1;align=center;strokeColor=default;fontSize=11;" vertex="1" parent="1">
          <mxGeometry x="780" y="-50" width="120" height="40" as="geometry" />
        </mxCell>
        <mxCell id="nuvW03jMFRnIzfuUqOyy-66" value="PASSES_THROUGH" style="shape=rhombus;perimeter=rhombusPerimeter;whiteSpace=wrap;html=1;align=center;strokeColor=default;fontSize=11;direction=west;" vertex="1" parent="1">
          <mxGeometry x="790" y="300" width="140" height="60" as="geometry" />
        </mxCell>
        <mxCell id="nuvW03jMFRnIzfuUqOyy-67" value="Name" style="ellipse;whiteSpace=wrap;html=1;align=center;fontStyle=4;strokeColor=default;fontSize=11;" vertex="1" parent="1">
          <mxGeometry x="1060" y="5" width="80" height="30" as="geometry" />
        </mxCell>
        <mxCell id="nuvW03jMFRnIzfuUqOyy-68" value="" style="endArrow=none;html=1;rounded=0;strokeWidth=1;fontSize=11;exitX=1;exitY=0.5;exitDx=0;exitDy=0;entryX=0;entryY=0.5;entryDx=0;entryDy=0;" edge="1" parent="1" source="nuvW03jMFRnIzfuUqOyy-61" target="nuvW03jMFRnIzfuUqOyy-67">
          <mxGeometry relative="1" as="geometry">
            <mxPoint x="680" y="100" as="sourcePoint" />
            <mxPoint x="840" y="100" as="targetPoint" />
          </mxGeometry>
        </mxCell>
      </root>
    </mxGraphModel>
  </diagram>
</mxfile>
